<mxfile host="65bd71144e">
    <diagram id="FS20eIT4xjfdXXAOL2nr" name="Page-1">
        <mxGraphModel dx="1087" dy="1140" grid="1" gridSize="10" guides="1" tooltips="1" connect="1" arrows="1" fold="1" page="1" pageScale="1" pageWidth="1169" pageHeight="827" background="none" math="0" shadow="0">
            <root>
                <mxCell id="0"/>
                <mxCell id="1" parent="0"/>
                <mxCell id="5" style="edgeStyle=none;html=1;rounded=0;" parent="1" source="2" target="4" edge="1">
                    <mxGeometry relative="1" as="geometry"/>
                </mxCell>
                <mxCell id="7" value="CHF 100 -&amp;gt; 100$" style="edgeLabel;html=1;align=center;verticalAlign=middle;resizable=0;points=[];rounded=0;" parent="5" vertex="1" connectable="0">
                    <mxGeometry x="-0.29" y="-1" relative="1" as="geometry">
                        <mxPoint x="11" y="-11" as="offset"/>
                    </mxGeometry>
                </mxCell>
                <mxCell id="2" value="Payer" style="shape=umlActor;verticalLabelPosition=bottom;verticalAlign=top;html=1;rounded=0;" parent="1" vertex="1">
                    <mxGeometry x="10" y="10" width="30" height="60" as="geometry"/>
                </mxCell>
                <mxCell id="4" value="Payee" style="shape=umlActor;verticalLabelPosition=bottom;verticalAlign=top;html=1;rounded=0;" parent="1" vertex="1">
                    <mxGeometry x="140" y="10" width="30" height="60" as="geometry"/>
                </mxCell>
                <mxCell id="23" style="edgeStyle=orthogonalEdgeStyle;html=1;exitX=0;exitY=0.5;exitDx=0;exitDy=0;endArrow=none;endFill=0;startArrow=none;startFill=0;rounded=0;" parent="1" source="10" edge="1">
                    <mxGeometry relative="1" as="geometry">
                        <mxPoint x="80" y="40" as="targetPoint"/>
                        <Array as="points">
                            <mxPoint x="90" y="110"/>
                            <mxPoint x="90" y="40"/>
                        </Array>
                    </mxGeometry>
                </mxCell>
                <mxCell id="10" value="" style="rounded=0;whiteSpace=wrap;html=1;align=left;" parent="1" vertex="1">
                    <mxGeometry x="180" width="810" height="540" as="geometry"/>
                </mxCell>
                <mxCell id="11" value="&lt;span style=&quot;&quot;&gt;Traditional way (SWIFT)&lt;/span&gt;" style="text;html=1;align=left;verticalAlign=middle;resizable=0;points=[];autosize=1;strokeColor=none;fillColor=none;rounded=0;" parent="1" vertex="1">
                    <mxGeometry x="180" width="140" height="20" as="geometry"/>
                </mxCell>
                <mxCell id="20" style="edgeStyle=none;html=1;rounded=0;" parent="1" source="18" edge="1">
                    <mxGeometry relative="1" as="geometry">
                        <mxPoint x="360" y="50" as="targetPoint"/>
                    </mxGeometry>
                </mxCell>
                <mxCell id="18" value="Client (CHF)" style="shape=umlActor;verticalLabelPosition=bottom;verticalAlign=top;html=1;outlineConnect=0;rounded=0;" parent="1" vertex="1">
                    <mxGeometry x="200" y="20" width="30" height="60" as="geometry"/>
                </mxCell>
                <mxCell id="21" value="Pays CHF 100 to bank" style="text;html=1;align=center;verticalAlign=middle;resizable=0;points=[];autosize=1;strokeColor=none;fillColor=none;rounded=0;" parent="1" vertex="1">
                    <mxGeometry x="220" y="30" width="140" height="20" as="geometry"/>
                </mxCell>
                <mxCell id="107" style="rounded=0;html=1;fontSize=9;startArrow=none;startFill=0;endArrow=classic;endFill=1;elbow=vertical;" parent="1" source="44" target="106" edge="1">
                    <mxGeometry relative="1" as="geometry"/>
                </mxCell>
                <mxCell id="44" value="Bank in Switzerland" style="shape=image;verticalLabelPosition=bottom;labelBackgroundColor=#ffffff;verticalAlign=top;aspect=fixed;imageAspect=0;image=https://cdn-icons-png.flaticon.com/512/2424/2424439.png;whiteSpace=wrap;fontSize=9;html=1;" parent="1" vertex="1">
                    <mxGeometry x="460" y="26.37" width="47.25" height="47.25" as="geometry"/>
                </mxCell>
                <mxCell id="105" style="edgeStyle=orthogonalEdgeStyle;html=1;entryX=0;entryY=0.5;entryDx=0;entryDy=0;fontSize=9;startArrow=none;startFill=0;endArrow=classic;endFill=1;rounded=0;" parent="1" source="45" target="44" edge="1">
                    <mxGeometry relative="1" as="geometry"/>
                </mxCell>
                <mxCell id="45" value="&lt;span style=&quot;font-size: 9px&quot;&gt;Account in Switzerland (Payer)&lt;/span&gt;" style="sketch=0;outlineConnect=0;fontColor=#232F3E;gradientColor=none;fillColor=#3F8624;strokeColor=none;dashed=0;verticalLabelPosition=bottom;verticalAlign=top;align=center;html=1;fontSize=9;fontStyle=0;aspect=fixed;pointerEvents=1;shape=mxgraph.aws4.bank;labelBackgroundColor=none;labelBorderColor=none;whiteSpace=wrap;" parent="1" vertex="1">
                    <mxGeometry x="370" y="25.5" width="49" height="49" as="geometry"/>
                </mxCell>
                <mxCell id="109" style="edgeStyle=none;rounded=0;html=1;fontSize=9;startArrow=none;startFill=0;endArrow=classic;endFill=1;elbow=vertical;" parent="1" source="54" target="108" edge="1">
                    <mxGeometry relative="1" as="geometry"/>
                </mxCell>
                <mxCell id="112" value="&lt;font style=&quot;font-size: 5px&quot;&gt;CHF 100 (-Fees)&lt;/font&gt;" style="edgeLabel;html=1;align=center;verticalAlign=middle;resizable=0;points=[];fontSize=9;rotation=0;" parent="109" vertex="1" connectable="0">
                    <mxGeometry x="-0.478" relative="1" as="geometry">
                        <mxPoint x="-57" y="24" as="offset"/>
                    </mxGeometry>
                </mxCell>
                <mxCell id="116" style="edgeStyle=none;rounded=0;html=1;fontSize=5;startArrow=none;startFill=0;endArrow=classic;endFill=1;elbow=vertical;" parent="1" source="54" target="115" edge="1">
                    <mxGeometry relative="1" as="geometry"/>
                </mxCell>
                <mxCell id="54" value="Bank in the United States" style="shape=image;verticalLabelPosition=bottom;labelBackgroundColor=#ffffff;verticalAlign=top;aspect=fixed;imageAspect=0;image=https://cdn-icons-png.flaticon.com/512/2424/2424439.png;whiteSpace=wrap;fontSize=9;html=1;" parent="1" vertex="1">
                    <mxGeometry x="550" y="27.249999999999996" width="47.25" height="47.25" as="geometry"/>
                </mxCell>
                <mxCell id="106" value="Bank account in the United States" style="sketch=0;outlineConnect=0;fontColor=#232F3E;gradientColor=none;fillColor=#3F8624;strokeColor=none;dashed=0;verticalLabelPosition=bottom;verticalAlign=top;align=center;html=1;fontSize=9;fontStyle=0;aspect=fixed;pointerEvents=1;shape=mxgraph.aws4.bank;labelBackgroundColor=none;labelBorderColor=none;whiteSpace=wrap;" parent="1" vertex="1">
                    <mxGeometry x="550" y="120" width="49" height="49" as="geometry"/>
                </mxCell>
                <mxCell id="108" value="Bank account in Switzerland" style="sketch=0;outlineConnect=0;fontColor=#232F3E;gradientColor=none;fillColor=#3F8624;strokeColor=none;dashed=0;verticalLabelPosition=bottom;verticalAlign=top;align=center;html=1;fontSize=9;fontStyle=0;aspect=fixed;pointerEvents=1;shape=mxgraph.aws4.bank;labelBackgroundColor=none;labelBorderColor=none;whiteSpace=wrap;" parent="1" vertex="1">
                    <mxGeometry x="458.25" y="120" width="49" height="49" as="geometry"/>
                </mxCell>
                <mxCell id="113" value="CHF 100" style="text;html=1;align=center;verticalAlign=middle;resizable=0;points=[];autosize=1;strokeColor=none;fillColor=none;fontSize=5;" parent="1" vertex="1">
                    <mxGeometry x="553.63" y="110" width="40" height="10" as="geometry"/>
                </mxCell>
                <mxCell id="122" style="edgeStyle=none;rounded=0;html=1;entryX=0;entryY=0.3333333333333333;entryDx=0;entryDy=0;entryPerimeter=0;fontSize=12;startArrow=none;startFill=0;endArrow=classic;endFill=1;elbow=vertical;" parent="1" source="115" target="118" edge="1">
                    <mxGeometry relative="1" as="geometry"/>
                </mxCell>
                <mxCell id="115" value="&lt;span style=&quot;font-size: 9px&quot;&gt;Account in Switzerland (Payee)&lt;/span&gt;" style="sketch=0;outlineConnect=0;fontColor=#232F3E;gradientColor=none;fillColor=#3F8624;strokeColor=none;dashed=0;verticalLabelPosition=bottom;verticalAlign=top;align=center;html=1;fontSize=9;fontStyle=0;aspect=fixed;pointerEvents=1;shape=mxgraph.aws4.bank;labelBackgroundColor=none;labelBorderColor=none;whiteSpace=wrap;" parent="1" vertex="1">
                    <mxGeometry x="700" y="26.37" width="49" height="49" as="geometry"/>
                </mxCell>
                <mxCell id="117" value="Pays $100 (-fees to client account)" style="text;html=1;align=center;verticalAlign=middle;resizable=0;points=[];autosize=1;strokeColor=none;fillColor=none;fontSize=12;" parent="1" vertex="1">
                    <mxGeometry x="550" y="10" width="200" height="20" as="geometry"/>
                </mxCell>
                <mxCell id="118" value="Payee (USD)" style="shape=umlActor;verticalLabelPosition=bottom;verticalAlign=top;html=1;outlineConnect=0;rounded=0;" parent="1" vertex="1">
                    <mxGeometry x="850" y="30.37" width="30" height="60" as="geometry"/>
                </mxCell>
                <mxCell id="123" value="Payee receives $100" style="text;html=1;align=center;verticalAlign=middle;resizable=0;points=[];autosize=1;strokeColor=none;fillColor=none;fontSize=10;" parent="1" vertex="1">
                    <mxGeometry x="749" y="30.370000000000005" width="110" height="20" as="geometry"/>
                </mxCell>
                <mxCell id="125" value="&lt;div&gt;Bitcoin way&lt;/div&gt;" style="text;html=1;align=left;verticalAlign=middle;resizable=0;points=[];autosize=1;strokeColor=none;fillColor=none;rounded=0;" parent="1" vertex="1">
                    <mxGeometry x="180" y="220" width="80" height="20" as="geometry"/>
                </mxCell>
                <mxCell id="129" style="edgeStyle=none;rounded=0;html=1;fontSize=10;startArrow=none;startFill=0;endArrow=classic;endFill=1;elbow=vertical;" parent="1" source="127" target="128" edge="1">
                    <mxGeometry relative="1" as="geometry"/>
                </mxCell>
                <mxCell id="127" value="Client" style="shape=umlActor;verticalLabelPosition=bottom;verticalAlign=top;html=1;outlineConnect=0;rounded=0;" parent="1" vertex="1">
                    <mxGeometry x="200" y="250" width="30" height="60" as="geometry"/>
                </mxCell>
                <mxCell id="132" style="edgeStyle=none;html=1;fontSize=10;" edge="1" parent="1" source="128" target="131">
                    <mxGeometry relative="1" as="geometry"/>
                </mxCell>
                <mxCell id="128" value="Transaction" style="aspect=fixed;perimeter=ellipsePerimeter;html=1;align=center;shadow=0;dashed=0;fontColor=#4277BB;labelBackgroundColor=#ffffff;fontSize=12;spacingTop=3;image;image=img/lib/ibm/blockchain/transaction_manager.svg;labelBorderColor=none;" parent="1" vertex="1">
                    <mxGeometry x="380" y="250" width="60" height="60" as="geometry"/>
                </mxCell>
                <mxCell id="130" value="Creates/Signs transaction" style="text;html=1;align=center;verticalAlign=middle;resizable=0;points=[];autosize=1;strokeColor=none;fillColor=none;" vertex="1" parent="1">
                    <mxGeometry x="226" y="260" width="150" height="20" as="geometry"/>
                </mxCell>
                <mxCell id="135" style="edgeStyle=none;html=1;fontSize=10;" edge="1" parent="1" source="131" target="134">
                    <mxGeometry relative="1" as="geometry"/>
                </mxCell>
                <mxCell id="131" value="Blockchain Network (every 10mins new block)" style="aspect=fixed;html=1;points=[];align=center;image;fontSize=10;image=img/lib/azure2/blockchain/Consortium.svg;" vertex="1" parent="1">
                    <mxGeometry x="516" y="246" width="68" height="68" as="geometry"/>
                </mxCell>
                <mxCell id="133" value="Gets confirmed" style="text;html=1;align=center;verticalAlign=middle;resizable=0;points=[];autosize=1;strokeColor=none;fillColor=none;fontSize=10;" vertex="1" parent="1">
                    <mxGeometry x="436" y="260" width="80" height="20" as="geometry"/>
                </mxCell>
                <mxCell id="134" value="Payee" style="shape=umlActor;verticalLabelPosition=bottom;verticalAlign=top;html=1;outlineConnect=0;rounded=0;" vertex="1" parent="1">
                    <mxGeometry x="660" y="250" width="30" height="60" as="geometry"/>
                </mxCell>
                <mxCell id="137" value="&lt;div&gt;Bitnano way&lt;/div&gt;" style="text;html=1;align=left;verticalAlign=middle;resizable=0;points=[];autosize=1;strokeColor=none;fillColor=none;rounded=0;" vertex="1" parent="1">
                    <mxGeometry x="180" y="380" width="80" height="20" as="geometry"/>
                </mxCell>
                <mxCell id="151" style="edgeStyle=none;html=1;fontSize=10;startArrow=none;startFill=0;" edge="1" parent="1" source="144" target="145">
                    <mxGeometry relative="1" as="geometry"/>
                </mxCell>
                <mxCell id="144" value="Client" style="shape=umlActor;verticalLabelPosition=bottom;verticalAlign=top;html=1;outlineConnect=0;rounded=0;" vertex="1" parent="1">
                    <mxGeometry x="200" y="424" width="30" height="60" as="geometry"/>
                </mxCell>
                <mxCell id="145" value="" style="aspect=fixed;perimeter=ellipsePerimeter;html=1;align=center;shadow=0;dashed=0;fontColor=#4277BB;labelBackgroundColor=#ffffff;fontSize=12;spacingTop=3;image;image=img/lib/ibm/blockchain/transaction_manager.svg;labelBorderColor=none;" vertex="1" parent="1">
                    <mxGeometry x="380" y="424" width="36" height="36" as="geometry"/>
                </mxCell>
                <mxCell id="146" value="Creates/Signs transaction" style="text;html=1;align=center;verticalAlign=middle;resizable=0;points=[];autosize=1;strokeColor=none;fillColor=none;" vertex="1" parent="1">
                    <mxGeometry x="230" y="424" width="150" height="20" as="geometry"/>
                </mxCell>
                <mxCell id="152" style="edgeStyle=none;html=1;entryX=0.5;entryY=0.5;entryDx=0;entryDy=0;entryPerimeter=0;fontSize=10;startArrow=none;startFill=0;" edge="1" parent="1" source="147" target="149">
                    <mxGeometry relative="1" as="geometry"/>
                </mxCell>
                <mxCell id="147" value="Blockchain Network (every 5mins new block)" style="aspect=fixed;html=1;points=[];align=center;image;fontSize=10;image=img/lib/azure2/blockchain/Consortium.svg;" vertex="1" parent="1">
                    <mxGeometry x="378" y="470" width="40" height="40" as="geometry"/>
                </mxCell>
                <mxCell id="148" value="Gets confirmed" style="text;html=1;align=center;verticalAlign=middle;resizable=0;points=[];autosize=1;strokeColor=none;fillColor=none;fontSize=10;" vertex="1" parent="1">
                    <mxGeometry x="490" y="450" width="80" height="20" as="geometry"/>
                </mxCell>
                <mxCell id="149" value="Payee" style="shape=umlActor;verticalLabelPosition=bottom;verticalAlign=top;html=1;outlineConnect=0;rounded=0;" vertex="1" parent="1">
                    <mxGeometry x="660" y="424" width="30" height="60" as="geometry"/>
                </mxCell>
            </root>
        </mxGraphModel>
    </diagram>
</mxfile>